REM DIRINDEX 1\2\4\18,1\2\4\19,1\2\5\20,1\2\5\21,1\2\6\22,1\2\7\23,1\2\8\24,1\2\8\25,1\2\9\26,1\2\10\27,1\3\11\28,1\3\11\29,1\3\11\30,1\3\11\31,1\3\12\32,1\3\12\33,1\3\12\34,1\3\12\35,1\3\13\36,1\3\13\37,1\3\14\38,1\3\14\39,1\3\15\40,1\3\15\41,1\3\15\42,1\3\16\43,1\3\16\44,1\3\17\45,1\3\17\46
REM DIRNAME cjc024,folder01,folder02,folder03,folder04,folder05,folder06,folder07,folder08,folder09,folder10,folder11,folder12,folder13,folder14,folder15,folder16,folder17,folder18,folder19,folder20,folder21,folder22,folder23,folder24,folder25,folder26,folder27,folder28,folder29,folder30,folder31,folder32,folder33,folder34,folder35,folder36,folder37,folder38,folder39,folder40,folder41,folder42,folder43,folder44,folder45
TITLE ""
FILE "06.mp3" MP3
  TRACK 01 AUDIO
    TITLE "0:"
    INDEX 01 00:00:00
  TRACK 02 AUDIO
    TITLE "27:cjc024_1001"
    INDEX 01 00:00:13
  TRACK 03 AUDIO
    TITLE "0:"
    INDEX 01 00:01:48
  TRACK 04 AUDIO
    TITLE "27:cjc024_1002"
    INDEX 01 00:02:22
  TRACK 05 AUDIO
    TITLE "0:"
    INDEX 01 00:03:70
  TRACK 06 AUDIO
    TITLE "27:cjc024_1003"
    INDEX 01 00:04:46
  TRACK 07 AUDIO
    TITLE "0:"
    INDEX 01 00:05:63
  TRACK 08 AUDIO
    TITLE "27:cjc024_1004"
    INDEX 01 00:06:41
  TRACK 09 AUDIO
    TITLE "0:"
    INDEX 01 00:07:70
  TRACK 10 AUDIO
    TITLE "27:cjc024_1005"
    INDEX 01 00:08:46
  TRACK 11 AUDIO
    TITLE "0:"
    INDEX 01 00:09:45
  TRACK 12 AUDIO
    TITLE "27:cjc024_1006"
    INDEX 01 00:10:21
  TRACK 13 AUDIO
    TITLE "0:"
    INDEX 01 00:11:60
  TRACK 14 AUDIO
    TITLE "27:cjc024_1007"
    INDEX 01 00:12:36
  TRACK 15 AUDIO
    TITLE "0:"
    INDEX 01 00:13:63
  TRACK 16 AUDIO
    TITLE "27:cjc024_1008"
    INDEX 01 00:14:45
  TRACK 17 AUDIO
    TITLE "0:"
    INDEX 01 00:15:64
  TRACK 18 AUDIO
    TITLE "27:cjc024_1009"
    INDEX 01 00:16:40
  TRACK 19 AUDIO
    TITLE "0:"
    INDEX 01 00:18:72
  TRACK 20 AUDIO
    TITLE "27:cjc024_1010"
    INDEX 01 00:19:48
  TRACK 21 AUDIO
    TITLE "0:"
    INDEX 01 00:21:19
  TRACK 22 AUDIO
    TITLE "27:cjc024_1011"
    INDEX 01 00:22:03
  TRACK 23 AUDIO
    TITLE "0:"
    INDEX 01 00:23:30
  TRACK 24 AUDIO
    TITLE "27:cjc024_1012"
    INDEX 01 00:24:06
  TRACK 25 AUDIO
    TITLE "0:"
    INDEX 01 00:25:21
  TRACK 26 AUDIO
    TITLE "27:cjc024_1013"
    INDEX 01 00:25:70
  TRACK 27 AUDIO
    TITLE "0:"
    INDEX 01 00:27:26
  TRACK 28 AUDIO
    TITLE "27:cjc024_1014"
    INDEX 01 00:28:00
  TRACK 29 AUDIO
    TITLE "0:"
    INDEX 01 00:29:09
  TRACK 30 AUDIO
    TITLE "27:cjc024_1015"
    INDEX 01 00:29:60
  TRACK 31 AUDIO
    TITLE "0:"
    INDEX 01 00:31:00
  TRACK 32 AUDIO
    TITLE "27:cjc024_1016"
    INDEX 01 00:31:51
  TRACK 33 AUDIO
    TITLE "0:"
    INDEX 01 00:32:52
  TRACK 34 AUDIO
    TITLE "27:cjc024_1017"
    INDEX 01 00:33:28
  TRACK 35 AUDIO
    TITLE "0:"
    INDEX 01 00:34:43
  TRACK 36 AUDIO
    TITLE "27:cjc024_1018"
    INDEX 01 00:35:17
  TRACK 37 AUDIO
    TITLE "0:"
    INDEX 01 00:36:46
  TRACK 38 AUDIO
    TITLE "27:cjc024_1019"
    INDEX 01 00:37:20
  TRACK 39 AUDIO
    TITLE "0:"
    INDEX 01 00:38:57
  TRACK 40 AUDIO
    TITLE "27:cjc024_1020"
    INDEX 01 00:39:35
  TRACK 41 AUDIO
    TITLE "0:"
    INDEX 01 00:40:73
  TRACK 42 AUDIO
    TITLE "27:cjc024_1021"
    INDEX 01 00:41:47
  TRACK 43 AUDIO
    TITLE "0:"
    INDEX 01 00:43:21
  TRACK 44 AUDIO
    TITLE "27:cjc024_1022"
    INDEX 01 00:43:74
  TRACK 45 AUDIO
    TITLE "0:"
    INDEX 01 00:44:69
  TRACK 46 AUDIO
    TITLE "27:cjc024_1023"
    INDEX 01 00:45:51
  TRACK 47 AUDIO
    TITLE "0:"
    INDEX 01 00:46:51
  TRACK 48 AUDIO
    TITLE "27:cjc024_1024"
    INDEX 01 00:47:32
  TRACK 49 AUDIO
    TITLE "0:"
    INDEX 01 00:48:36
  TRACK 50 AUDIO
    TITLE "27:cjc024_1025"
    INDEX 01 00:49:23
  TRACK 51 AUDIO
    TITLE "0:"
    INDEX 01 00:50:35
  TRACK 52 AUDIO
    TITLE "27:cjc024_1026"
    INDEX 01 00:51:15
  TRACK 53 AUDIO
    TITLE "0:"
    INDEX 01 00:53:62
  TRACK 54 AUDIO
    TITLE "27:cjc024_1027"
    INDEX 01 00:54:36
  TRACK 55 AUDIO
    TITLE "0:"
    INDEX 01 00:57:27
  TRACK 56 AUDIO
    TITLE "27:cjc024_1028"
    INDEX 01 00:58:03
  TRACK 57 AUDIO
    TITLE "0:"
    INDEX 01 00:59:55
  TRACK 58 AUDIO
    TITLE "27:cjc024_1029"
    INDEX 01 01:00:33
  TRACK 59 AUDIO
    TITLE "0:"
    INDEX 01 01:01:50
  TRACK 60 AUDIO
    TITLE "27:cjc024_1030"
    INDEX 01 01:02:26
  TRACK 61 AUDIO
    TITLE "0:"
    INDEX 01 01:03:69
  TRACK 62 AUDIO
    TITLE "27:cjc024_1031"
    INDEX 01 01:04:43
  TRACK 63 AUDIO
    TITLE "0:"
    INDEX 01 01:06:18
  TRACK 64 AUDIO
    TITLE "27:cjc024_1032"
    INDEX 01 01:06:71
  TRACK 65 AUDIO
    TITLE "0:"
    INDEX 01 01:07:74
